<?xml version="1.0" encoding="utf-8"?>
<!-- Generator: Adobe Illustrator 16.0.2, SVG Export Plug-In . SVG Version: 6.00 Build 0)  -->
<!DOCTYPE svg PUBLIC "-//W3C//DTD SVG 1.1//EN" "http://www.w3.org/Graphics/SVG/1.1/DTD/svg11.dtd">
<svg version="1.1" id="Layer_1" xmlns="http://www.w3.org/2000/svg" xmlns:xlink="http://www.w3.org/1999/xlink" x="0px" y="0px"
	 width="1483.426px" height="428.979px" viewBox="0 0 1483.426 428.979" enable-background="new 0 0 1483.426 428.979"
	 xml:space="preserve">
<g>
	<g>
		<g>
			<polygon fill="#008529" points="1267.801,366.961 1267.801,214.678 1423.9,138.547 1423.9,290.825 			"/>
		</g>
		<polygon fill="#FFC500" points="1111.697,62.018 1111.697,214.302 1267.801,290.436 1267.801,138.168 		"/>
		<g>
			<path fill="#434547" d="M1402.834,315.887h-4.264v-1.522h10.18v1.522h-4.285v13.703h-1.631V315.887z"/>
			<path fill="#434547" d="M1411.404,314.365h1.698l4.632,8.157l4.656-8.157h1.696v15.226h-1.631v-12.269l-4.699,8.137h-0.066
				l-4.699-8.137v12.269h-1.587V314.365z"/>
		</g>
	</g>
	<g>
		<g>
			<g>
				<path fill="#434547" d="M163.878,137.636h-31.944v104.111c0,18.61-10.118,21.34-20.34,21.34
					c-12.223,0-20.482-5.451-20.482-21.34V137.636H59.34v106.088c0,27.529,18.141,44.453,51.721,44.93
					c4.219,0.032,1.195,0.032,6.704,0c9.193-0.111,46.113-5.094,46.113-5.094V137.636z"/>
			</g>
			<g>
				<path fill="#434547" d="M228.478,288.767c-10.69,0-21.104-2.838-31.272-8.529c-5.419-2.883-10.093-6.605-14.04-11.146
					c-3.967-4.542-7.475-10.392-10.498-17.516l26.322-11.509c1.596,3.453,3.295,6.57,5.157,9.404
					c1.838,2.848,3.957,5.249,6.329,7.234c2.381,1.994,5.118,3.523,8.206,4.651c3.107,1.119,6.625,1.675,10.606,1.675
					c2.757,0,5.444-0.257,8.098-0.775c2.638-0.546,4.984-1.418,7.04-2.685c2.021-1.25,3.636-2.957,4.821-5.124
					c1.201-2.184,1.794-4.923,1.794-8.221c0-4.891-2.515-8.979-7.529-12.264c-5.553-3.688-12.203-7.003-19.979-9.916
					c-15.31-5.797-26.692-11.813-34.236-17.99c-7.924-6.733-11.866-16.041-11.866-27.928c0-11.735,4.608-21.438,13.848-29.079
					c9.238-7.657,20.774-11.488,34.632-11.488c11.595,0,22.034,2.848,31.282,8.529c4.595,2.757,8.705,6.316,12.252,10.676
					c3.567,4.355,6.803,9.896,9.693,16.632l-29.079,8.886c-2.371-5.662-5.385-10.264-9.021-13.739
					c-3.616-3.476-8.739-5.249-15.33-5.249c-2.1,0-4.243,0.231-6.422,0.696c-2.198,0.465-4.165,1.163-5.938,2.174
					c-1.773,0.983-3.251,2.379-4.367,4.165c-1.122,1.783-1.67,3.927-1.67,6.435c0,1.946,0.603,3.873,1.882,5.73
					c1.24,1.833,3.399,3.616,6.433,5.326c6.329,3.586,13.453,6.746,21.362,9.503c11.234,3.826,21.243,9.196,30.077,16.038
					c9.382,6.981,14.055,17.173,14.055,30.468c0,14.394-4.604,25.526-13.857,33.469
					C258.032,284.941,245.093,288.767,228.478,288.767z"/>
			</g>
			<g>
				<path fill="#434547" d="M384.347,275.249c-5.123,4.989-10.395,8.442-15.795,10.424c-5.409,1.966-11.659,2.937-18.783,2.937
					c-10.642,0-19.731-1.993-27.241-6.005c-7.519-4.031-13.625-9.382-18.354-16.115c-4.752-6.714-8.186-14.458-10.379-23.197
					c-2.184-8.765-3.261-17.869-3.261-27.343c0-10.424,1.077-20.324,3.245-29.719c2.164-9.431,5.696-17.726,10.603-24.904
					c4.921-7.173,11.393-12.896,19.47-17.147c8.083-4.304,17.953-6.462,29.696-6.462c11.066,0,21.393,2.87,31.001,8.562
					c4.861,3.003,9.081,6.971,12.633,11.898c3.557,4.918,6.635,11.346,9.293,19.255l-29.218,7.689
					c-3.038-6.701-6.506-11.819-10.369-15.313c-3.898-3.478-9.664-5.219-17.302-5.219c-6.057,0-10.898,1.741-14.505,5.288
					c-3.621,3.511-6.438,7.853-8.408,13.03c-1.972,5.178-3.231,10.651-3.844,16.437c-0.603,5.761-0.899,10.824-0.899,15.233
					c0,4.509,0.386,9.513,1.097,15.031c0.741,5.496,2.115,10.632,4.18,15.429c2.046,4.787,4.985,8.745,8.75,11.931
					c3.789,3.194,8.65,4.788,14.608,4.788c8.166,0,14.762-2.592,19.767-7.821c4.342-4.432,6.847-9.912,7.499-16.471h-27.054v-26.866
					h57.842v76.053h-24.271V275.249z"/>
			</g>
		</g>
		<g>
			<path fill-rule="evenodd" clip-rule="evenodd" fill="#434547" d="M450.41,286.677v-143.65h53.297
				c25.502,0,42.704,9.871,42.704,37.327c0,12.953-4.224,23.446-15.814,29.355v0.412c20.563,2.655,29.356,16.59,29.356,36.576
				c0,30.106-25.734,39.979-52.022,39.979H450.41L450.41,286.677z M487.734,258.127h4.748c11.031,0,29.735,0.533,29.735-15.243
				c0-17.393-18.511-15.693-30.704-15.693h-3.779V258.127L487.734,258.127z M487.734,199.443h4.155c9.91,0,20.27-1.701,20.27-13.932
				c0-13.184-11.669-13.93-21.767-13.93h-2.658V199.443L487.734,199.443z"/>
			<path fill-rule="evenodd" clip-rule="evenodd" fill="#434547" d="M719.047,212.214c0,46.446-33.318,79.229-79.472,79.229
				c-46.039,0-79.436-32.782-79.436-79.229c0-43.458,38.109-73.955,79.436-73.955C680.976,138.259,719.047,168.756,719.047,212.214
				L719.047,212.214z M599.036,212.365c0,24.775,18.284,42.897,40.54,42.897c22.365,0,40.575-18.122,40.575-42.897
				c0-19.804-18.21-37.868-40.575-37.868C617.32,174.497,599.036,192.561,599.036,212.365L599.036,212.365z"/>
			<path fill-rule="evenodd" clip-rule="evenodd" fill="#434547" d="M845.308,286.677h-46.563l-35.19-55.272h-0.375v55.272h-37.398
				v-143.65h55.836c28.422,0,49.928,13.521,49.928,44.189c0,19.84-11.102,36.983-31.451,40.629L845.308,286.677L845.308,286.677z
				 M763.179,207.427h3.557c12.228,0,25.952-2.317,25.952-17.895c0-15.651-13.725-17.951-25.952-17.951h-3.557V207.427
				L763.179,207.427z"/>
			<path fill-rule="evenodd" clip-rule="evenodd" fill="#434547" d="M882.04,261.729l-9.876,24.948h-39.572l55.204-143.65h40.847
				l54.037,143.65h-39.794l-9.387-24.948H882.04L882.04,261.729z M908.179,187.401h-0.336L892.4,233.173h31L908.179,187.401
				L908.179,187.401z"/>
			<polygon fill-rule="evenodd" clip-rule="evenodd" fill="#434547" points="1024.075,255.059 1068.81,255.059 1068.81,286.677 
				986.681,286.677 986.681,143.027 1024.075,143.027 1024.075,255.059 			"/>
		</g>
	</g>
</g>
</svg>
